<svg preserveAspectRatio="none" overflow="visible" style="display: block;" width="176" height="126" viewBox="0 0 176 126" fill="none" xmlns="http://www.w3.org/2000/svg">
<g id="Editorial illustration / technology" clip-path="url(#clip0_0_22)">
<path id="Vector" d="M165.943 0.142856H10.0571C4.50274 0.142856 -1.01328e-06 4.64559 -1.01328e-06 10.2V115.8C-1.01328e-06 121.354 4.50274 125.857 10.0571 125.857H165.943C171.497 125.857 176 121.354 176 115.8V10.2C176 4.64559 171.497 0.142856 165.943 0.142856Z" fill="#DFF4F0"/>
<path id="Vector_2" d="M117.333 20.2571H53.6381C48.0837 20.2571 43.581 24.7599 43.581 30.3143V98.2C43.581 103.754 48.0837 108.257 53.6381 108.257H117.333C122.888 108.257 127.39 103.754 127.39 98.2V30.3143C127.39 24.7599 122.888 20.2571 117.333 20.2571Z" fill="#102A43"/>
<path id="Vector_3" d="M108.952 36.181H62.019C60.1676 36.181 58.6667 37.6819 58.6667 39.5333V46.2381C58.6667 48.0896 60.1676 49.5905 62.019 49.5905H108.952C110.804 49.5905 112.305 48.0896 112.305 46.2381V39.5333C112.305 37.6819 110.804 36.181 108.952 36.181Z" fill="#DFF4F0"/>
<path id="Vector_4" d="M108.952 60.4857H62.019C60.1676 60.4857 58.6667 61.9866 58.6667 63.8381V70.5429C58.6667 72.3943 60.1676 73.8952 62.019 73.8952H108.952C110.804 73.8952 112.305 72.3943 112.305 70.5429V63.8381C112.305 61.9866 110.804 60.4857 108.952 60.4857Z" fill="#0F766E"/>
<path id="Vector_5" d="M108.952 84.7905H62.019C60.1676 84.7905 58.6667 86.2914 58.6667 88.1429V89.819C58.6667 91.6705 60.1676 93.1714 62.019 93.1714H108.952C110.804 93.1714 112.305 91.6705 112.305 89.819V88.1429C112.305 86.2914 110.804 84.7905 108.952 84.7905Z" fill="#627D98"/>
</g>
<defs>
<clipPath id="clip0_0_22">
<rect width="176" height="126" fill="white"/>
</clipPath>
</defs>
</svg>
